<?xml version="1.0" encoding="UTF-8"?> <svg xmlns="http://www.w3.org/2000/svg" width="25" height="25" viewBox="0 0 25 25" fill="none"> <circle cx="12.2227" cy="12.2227" r="12.2227" fill="#bcbcbc"></circle> <circle cx="12.2227" cy="12.2227" r="12.2227" fill="url(#paint0_radial_336_634)" fill-opacity="0.4"></circle> <path d="M12.2345 8.19836C12.2718 7.89943 12.4026 7.65654 12.6268 7.46971C12.851 7.28287 13.1079 7.18945 13.3975 7.18945C13.6684 7.18945 13.8786 7.2782 14.0281 7.45569C14.1869 7.62384 14.2476 7.83403 14.2102 8.08626C14.1729 8.37585 14.0374 8.61874 13.8039 8.81492C13.5797 9.00175 13.3228 9.09517 13.0332 9.09517C12.7623 9.09517 12.5521 9.01109 12.4026 8.84294C12.2531 8.66545 12.1971 8.45059 12.2345 8.19836ZM11.772 11.8697C11.9495 11.3278 11.8888 11.0569 11.5899 11.0569C11.3844 11.0569 11.2022 11.1644 11.0434 11.3792C10.8846 11.5847 10.7211 11.9164 10.5529 12.3741L10.3287 12.9626H10.0625L10.4268 11.9257C10.567 11.5427 10.7351 11.2484 10.9313 11.0429C11.1275 10.8374 11.3376 10.6926 11.5618 10.6085C11.7954 10.5245 12.0196 10.4824 12.2345 10.4824C12.5427 10.4824 12.7763 10.5431 12.9351 10.6646C13.0939 10.786 13.192 10.9448 13.2293 11.141C13.2667 11.3372 13.2667 11.552 13.2293 11.7856C13.192 12.0098 13.1359 12.2293 13.0612 12.4442L11.5759 16.704C11.4824 16.9656 11.4544 17.1664 11.4918 17.3066C11.5292 17.4467 11.6272 17.5167 11.786 17.5167C11.9542 17.5167 12.1177 17.428 12.2765 17.2505C12.4353 17.0637 12.6128 16.7134 12.809 16.1996L13.0332 15.625H13.2994L12.9351 16.648C12.8043 17.0216 12.6408 17.3112 12.4446 17.5167C12.2485 17.7223 12.0383 17.8671 11.8141 17.9511C11.5992 18.0445 11.3797 18.0913 11.1555 18.0913C10.7538 18.0913 10.4689 18.0025 10.3007 17.825C10.1419 17.6382 10.0718 17.3906 10.0905 17.0823C10.1092 16.7647 10.1839 16.4191 10.3147 16.0454L11.772 11.8697Z" fill="white"></path> <defs> <radialGradient id="paint0_radial_336_634" cx="0" cy="0" r="1" gradientUnits="userSpaceOnUse" gradientTransform="translate(7.18982 2.39661) rotate(77.1419) scale(22.6159)"> <stop stop-color="white"></stop> <stop offset="1" stop-color="white" stop-opacity="0"></stop> </radialGradient> </defs> <!-- Code injected by live-server -->

</svg> 