<?xml version="1.0" encoding="UTF-8"?> <svg xmlns="http://www.w3.org/2000/svg" width="12" height="41" viewBox="0 0 12 41" fill="none"> <g opacity="0.6"> <path d="M7.89643 28.3452C7.89643 27.8535 7.70119 27.463 7.31071 27.1737C6.92023 26.87 6.38512 26.7182 5.70539 26.7182C5.0112 26.7182 4.4544 26.8411 4.03499 27.087C3.63004 27.3328 3.42757 27.6438 3.42757 28.0198C3.42757 28.3524 3.5505 28.6272 3.79636 28.8441C4.05668 29.0611 4.36762 29.2346 4.72918 29.3648C5.1052 29.4949 5.64031 29.6468 6.3345 29.8203C7.34686 30.0662 8.16399 30.3193 8.78587 30.5796C9.42221 30.8255 9.96455 31.2159 10.4129 31.7511C10.8757 32.2862 11.1071 33.0093 11.1071 33.9204C11.1071 35.3666 10.6732 36.4585 9.80546 37.1961C8.95218 37.9337 7.7735 38.3459 6.26942 38.4327C6.39958 39.3293 6.49359 39.9512 6.55144 40.2983H4.36039L4.64241 38.411C3.26849 38.2953 2.14766 37.8903 1.27992 37.1961C0.426639 36.4875 0 35.4823 0 34.1807L0.0216935 33.7469H2.95032L2.92862 34.0723C2.92862 34.6508 3.13833 35.0991 3.55773 35.4173C3.97714 35.7354 4.58456 35.8945 5.37999 35.8945C6.30558 35.8945 6.96361 35.7571 7.3541 35.4823C7.75904 35.2076 7.96151 34.8532 7.96151 34.4194C7.96151 34.0723 7.83858 33.7902 7.59272 33.5733C7.34686 33.3564 7.03592 33.1828 6.6599 33.0527C6.29834 32.9225 5.7777 32.7706 5.09797 32.5971C4.11453 32.3657 3.29741 32.1198 2.64661 31.8595C2.01026 31.5992 1.4607 31.187 0.997901 30.623C0.549569 30.059 0.325402 29.2997 0.325402 28.3452C0.325402 27.1737 0.723117 26.2481 1.51854 25.5684C2.31397 24.8742 3.35526 24.4548 4.64241 24.3102C4.52671 23.4714 4.4327 22.8423 4.36039 22.4229H6.55144C6.46466 22.9001 6.37066 23.522 6.26942 24.2885C7.62888 24.3753 8.72079 24.7585 9.54514 25.4382C10.384 26.1035 10.8034 27.058 10.8034 28.3018V28.5404H7.89643V28.3452Z" fill="#212121"></path> <circle opacity="0.6" cx="5.14088" cy="13.2815" r="4.14088" fill="#212121"></circle> <circle opacity="0.4" cx="5.07044" cy="2.07044" r="2.07044" fill="#212121"></circle> </g> <!-- Code injected by live-server -->

</svg> 