<?xml version="1.0" encoding="UTF-8"?> <svg xmlns="http://www.w3.org/2000/svg" width="50" height="41" viewBox="0 0 50 41" fill="none"> <path d="M12.8575 0.610953C13.0586 0.953608 16.3586 6.51057 20.1948 12.9614L27.1745 24.6936L18.3772 24.716L9.5874 24.7309L9.40862 25.0139C9.14791 25.4087 0.0452102 40.7686 0.000516067 40.8729C-0.02928 40.9474 1.22215 40.9697 6.10126 40.9697H12.2393L16.3958 34.0123C18.6826 30.1836 20.6492 26.8985 20.7684 26.7049L20.9844 26.3697L24.6121 26.3846L28.2472 26.4069L32.5676 33.6846L36.888 40.9697H43.0111C46.3855 40.9697 49.1417 40.9548 49.1417 40.9325C49.1417 40.9027 43.6667 31.6883 36.9849 20.4477L24.8206 0.000133578H18.6603H12.4925L12.8575 0.610953Z" fill="white"></path> </svg> 